<svg width="1249" height="527" viewBox="0 0 1249 527" fill="none" xmlns="http://www.w3.org/2000/svg">
<path d="M161.173 513.786C161.173 517.259 159.088 518.648 152.141 518.648H0V491.555C0 485.302 4.16826 479.745 11.1154 477.661C34.7355 470.714 43.072 466.545 47.935 451.956L189.656 56.6666C215.36 44.8565 272.326 29.5729 302.199 24.71L470.318 465.851L509.917 480.439V513.786C509.917 517.259 507.833 518.648 500.886 518.648H282.052V491.555C282.052 485.302 284.831 479.745 292.473 477.661C325.819 468.629 334.155 463.766 328.598 449.178L302.199 375.538H140.331L111.848 466.545L161.173 480.439V513.786ZM156.31 323.435H283.441L215.36 137.253L156.31 323.435ZM657.89 515.175C657.89 517.954 656.5 518.648 650.943 518.648H468.929V490.86C468.929 483.913 471.013 480.439 477.265 477.661C498.107 469.324 503.664 462.377 503.664 448.483V237.291C503.664 225.481 500.886 222.007 477.265 215.755C471.708 214.366 468.929 210.892 468.929 203.945V176.851L623.849 148.368L622.46 221.313C659.974 174.073 702.351 148.368 753.065 148.368C818.368 148.368 857.272 189.356 857.272 259.522V468.629L894.786 482.524V515.175C894.786 517.954 893.396 518.648 887.839 518.648H705.13V490.86C705.13 483.913 707.214 480.439 714.161 477.661C734.308 470.019 739.171 462.377 739.171 448.483V296.341C739.171 249.796 719.719 232.428 684.984 232.428C663.448 232.428 642.606 240.07 622.46 253.269V468.629L657.89 482.524V515.175ZM1248.98 338.719C1248.98 449.178 1171.18 526.985 1056.55 526.985C943.312 526.985 873.147 454.735 873.147 338.024C873.147 226.87 950.26 148.368 1064.89 148.368C1178.82 148.368 1248.98 222.007 1248.98 338.719ZM1127.41 351.918C1127.41 229.649 1098.23 194.914 1057.94 194.914C1014.87 194.914 994.721 237.291 994.721 323.435C994.721 446.399 1023.2 480.439 1064.19 480.439C1107.26 480.439 1127.41 438.062 1127.41 351.918Z" fill="#727BFA"/>
<path d="M507.079 25.5306L502.3 22.3864L514.876 0C518.901 1.00613 524.561 5.15643 526.574 8.17482L507.079 25.5306ZM475.764 120.233C475.637 120.862 475.261 120.987 474.255 120.987H448.596L449.099 117.34C449.351 116.208 449.729 115.328 451.112 114.95C455.263 113.567 456.899 113.064 458.03 110.674L496.138 36.3465C500.036 34.46 507.079 32.322 511.23 31.5674L528.083 112.938L534.747 115.579L533.993 120.233C533.868 120.862 533.49 120.987 532.359 120.987H501.169L501.797 117.34C502.048 116.208 502.3 115.328 503.684 114.95C509.594 113.19 510.727 112.435 510.224 110.171L506.827 93.3187H477.273L468.091 112.938L476.519 115.579L475.764 120.233ZM480.795 85.7727H505.318L497.899 49.1747L480.795 85.7727ZM545.23 107.53L557.555 38.3588C557.934 35.9692 557.052 35.4661 552.022 34.0827C551.142 33.7054 550.764 33.4539 551.016 32.322L551.646 28.8005L576.42 25.1533L573.78 38.1072L561.328 107.656C560.825 110.674 561.455 112.435 563.844 112.435C565.48 112.435 567.114 111.806 568.498 110.926L571.138 115.705C566.738 119.73 561.455 122.496 555.543 122.496C547.118 122.496 543.597 116.711 545.23 107.53ZM645.003 77.2206C645.003 102.374 629.911 122.496 605.89 122.496C599.602 122.496 593.941 120.987 589.414 117.969L582.749 122.496L578.725 118.975C580.989 114.573 581.743 111.932 582.749 105.644L594.696 38.3588C595.074 35.9692 594.193 35.4661 589.162 34.0827C588.283 33.7054 587.905 33.4539 588.156 32.322L588.786 28.8005L613.436 25.1533L610.794 38.1072L605.26 69.1715C612.682 59.1102 620.101 54.9599 627.271 54.9599C638.966 54.9599 645.003 64.6439 645.003 77.2206ZM619.849 66.2789C615.07 66.2789 609.412 69.5488 603.878 76.969L598.093 110.926C599.978 114.07 603.5 115.454 607.148 115.454C621.234 115.454 628.78 94.7021 628.78 80.4905C628.78 71.058 625.383 66.2789 619.849 66.2789ZM719.667 115.705C716.146 119.101 711.366 121.742 706.587 122.245C705.33 122.371 704.072 122.496 702.814 122.371C697.281 121.868 694.138 118.22 693.886 112.435C693.886 110.8 693.886 109.039 694.138 107.153C686.592 117.089 679.297 121.616 672.63 122.245C671.5 122.371 670.367 122.371 669.236 122.371C660.054 121.868 654.52 115.328 656.029 103.632C656.281 101.745 656.532 99.8585 656.911 97.8463L662.696 68.0396C663.199 65.6501 662.318 65.147 657.162 63.6378C656.408 63.3863 656.029 63.009 656.156 62.0028L656.784 58.3556L681.561 54.9599L679.673 64.5182L678.164 72.1899L673.385 96.9659C671.5 106.901 673.26 111.052 678.794 111.052H679.8C684.076 110.674 689.735 107.027 695.268 99.607L700.929 68.0396C701.305 65.6501 700.551 65.0212 695.647 63.6378C694.892 63.3863 694.514 63.009 694.641 62.0028L695.268 58.3556L719.794 54.9599L717.906 64.5182L716.397 72.1899L709.984 107.656C709.857 108.285 709.857 108.788 709.857 109.165C709.733 110.8 710.109 111.932 711.242 112.184C711.745 112.309 712.373 112.435 713.003 112.309C714.385 112.309 715.894 111.681 717.027 110.926L719.667 115.705ZM818.273 122.496C809.845 122.496 805.948 116.585 807.96 107.53C808.587 104.26 812.487 84.3893 813.242 80.3647C815.379 70.4292 813.367 66.2789 807.33 66.2789C803.054 66.2789 797.772 69.423 792.238 76.7175L784.064 120.987H767.715L775.134 80.3647C777.021 70.4292 775.261 66.2789 769.6 66.2789C765.072 66.2789 759.539 69.6746 753.753 77.5979L745.956 120.987H729.733L739.164 68.0396C739.543 65.6501 738.661 65.147 733.631 63.6378C732.876 63.3863 732.5 63.009 732.625 62.0028L733.255 58.3556L758.156 54.9599L755.263 69.8003C763.06 59.236 770.481 54.9599 777.649 54.9599C786.831 54.9599 792.616 59.9906 792.741 69.9261C800.538 59.236 808.211 54.9599 815.63 54.9599C826.949 54.9599 833.365 62.5059 830.346 76.7175C829.592 80.3647 825.189 102.751 824.058 107.656C823.555 110.674 824.183 112.435 826.573 112.435C828.207 112.435 829.843 111.806 831.101 110.926C831.604 111.681 833.238 114.95 833.741 115.705C829.465 119.73 824.058 122.496 818.273 122.496ZM960.379 115.705C956.479 119.604 950.694 122.496 944.909 122.496C938.747 122.496 935.35 118.975 935.099 112.938C934.974 111.177 934.974 109.417 935.099 107.656C928.307 117.214 921.265 121.616 914.852 122.245C913.594 122.371 912.336 122.496 911.079 122.371C900.639 121.616 895.105 112.184 895.105 100.236C895.105 75.0825 910.576 54.9599 934.22 54.9599C937.614 54.9599 940.76 55.5887 943.526 56.9722L946.921 38.3588C947.299 35.9692 946.293 35.4661 941.387 34.0827C940.508 33.7054 940.13 33.4539 940.256 32.322L941.011 28.8005L965.786 25.1533L963.901 34.2085L962.264 42.7606L950.694 107.656C950.191 110.046 950.569 111.681 952.079 112.184C952.582 112.309 953.209 112.435 953.839 112.309C955.348 112.309 956.606 111.681 957.737 110.926L960.379 115.705ZM911.33 96.9659C911.33 106.398 914.725 111.177 920.134 111.177C924.661 111.177 930.571 107.908 935.853 100.487L936.105 99.3555L941.89 66.5304C940.257 64.0151 937.741 62.6317 934.974 62.2544C933.968 62.1286 932.962 62.0028 931.956 62.1286C918.749 63.1347 911.33 82.6285 911.33 96.9659ZM1033.59 80.742C1033.59 103.506 1018.25 122.496 996.744 122.496C981.022 122.496 970.333 113.441 970.333 96.5886C970.333 73.9506 985.549 54.9599 1007.18 54.9599C1022.9 54.9599 1033.59 64.0151 1033.59 80.742ZM1016.99 78.4782C1016.99 67.285 1012.84 62.1286 1006.17 62.1286C993.977 62.1286 986.807 84.0119 986.807 98.8524C986.807 110.046 990.958 115.454 997.623 115.454C1009.82 115.454 1016.99 93.1929 1016.99 78.4782Z" fill="#727BFA"/>
</svg>
