<svg width="1192" height="474" viewBox="0 0 1192 474" fill="none" xmlns="http://www.w3.org/2000/svg">
<g filter="url(#filter0_d_71_7)">
<path d="M161.13 447.577C161.13 450.702 159.175 451.951 152.661 451.951H10V427.584C10 421.961 13.9086 416.963 20.4227 415.088C42.571 408.841 50.388 405.092 54.9479 391.971L187.837 36.4641C211.939 25.8426 265.356 12.0971 293.367 7.72363L451.011 404.467L488.142 417.588V447.577C488.142 450.702 486.187 451.951 479.673 451.951H274.476V427.584C274.476 421.961 277.082 416.963 284.248 415.088C315.516 406.965 323.332 402.592 318.122 389.471L293.367 323.243H141.587L114.878 405.092L161.13 417.588V447.577ZM156.569 276.384H275.779L211.939 108.94L156.569 276.384ZM626.894 448.827C626.894 451.326 625.591 451.951 620.38 451.951H449.707V426.959C449.707 420.712 451.662 417.588 457.525 415.088C477.068 407.591 482.279 401.343 482.279 388.847V198.91C482.279 188.288 479.673 185.165 457.525 179.541C452.313 178.292 449.707 175.168 449.707 168.92V144.553L594.974 118.937L593.672 184.54C628.848 142.053 668.585 118.937 716.138 118.937C777.372 118.937 813.851 155.8 813.851 218.904V406.965L849.028 419.461V448.827C849.028 451.326 847.725 451.951 842.513 451.951H671.191V426.959C671.191 420.712 673.144 417.588 679.659 415.088C698.55 408.216 703.11 401.343 703.11 388.847V252.018C703.11 210.157 684.87 194.537 652.299 194.537C632.105 194.537 612.562 201.41 593.672 213.28V406.965L626.894 419.461V448.827ZM1181.15 290.13C1181.15 389.471 1108.2 459.449 1000.71 459.449C894.531 459.449 828.737 394.47 828.737 289.506C828.737 189.539 901.045 118.937 1008.53 118.937C1115.36 118.937 1181.15 185.165 1181.15 290.13ZM1067.16 302C1067.16 192.037 1039.8 160.798 1002.01 160.798C961.626 160.798 942.736 198.91 942.736 276.384C942.736 386.973 969.444 417.588 1007.88 417.588C1048.26 417.588 1067.16 379.475 1067.16 302Z" fill="#FEE284"/>
<path d="M460.468 88.8816C465.421 87.4112 466.482 86.7325 466.6 83.9048L470.256 31.4222L436.882 94.3108H426.503L412.471 31.5353L399.145 86.9587L408.108 89.334L407.282 93.6322C407.164 94.1977 406.809 94.3108 405.749 94.3108H382.044L382.753 91.0307C382.989 89.8995 383.341 89.2209 384.522 88.8816C388.648 87.5243 389.711 86.9587 390.299 84.6965L406.573 26.1061C407.4 23.2783 405.158 22.3735 400.087 20.9032C399.027 20.5638 398.554 20.1113 398.791 18.8672L399.499 15.1346H425.561L438.769 75.0823L468.723 15.1346H494.078C495.021 15.1346 495.257 15.2477 495.139 16.0394L494.55 20.2245L486.412 22.826L482.285 87.0718L489.479 89.334L488.653 93.6322C488.535 94.1977 488.299 94.3108 487.238 94.3108H457.992L458.463 90.9175C458.581 90.0126 459.171 89.2209 460.468 88.8816ZM539.207 29.6125L534.726 26.7847L546.517 6.65137C550.291 7.55624 555.598 11.2888 557.486 14.0034L539.207 29.6125ZM562.557 89.5603C559.255 92.6142 554.772 94.9895 550.291 95.4419C549.113 95.5551 547.934 95.668 546.753 95.5551C541.564 95.1026 538.616 91.8223 538.38 86.6194C538.38 85.149 538.38 83.5655 538.616 81.8689C531.54 90.8044 524.702 94.8764 518.45 95.4419C517.389 95.5551 516.329 95.5551 515.266 95.5551C506.657 95.1026 501.47 89.2209 502.884 78.7017C503.121 77.0051 503.355 75.3085 503.709 73.4987L509.134 46.6919C509.607 44.5428 508.78 44.0904 503.945 42.7331C503.237 42.5069 502.884 42.1675 503.003 41.2627L503.591 37.9826L526.823 34.9286L525.054 43.5249L523.639 50.4245L519.158 72.7069C517.389 81.6426 519.04 85.3752 524.229 85.3752H525.172C529.182 85.0359 534.49 81.7557 539.679 75.0823L544.984 46.6919C545.338 44.5428 544.632 43.9773 540.031 42.7331C539.325 42.5069 538.97 42.1675 539.089 41.2627L539.679 37.9826L562.675 34.9286L560.906 43.5249L559.491 50.4245L553.475 82.3212C553.357 82.8868 553.357 83.3392 553.357 83.6786C553.239 85.149 553.593 86.1669 554.656 86.3931C555.126 86.5062 555.717 86.6194 556.307 86.5062C557.604 86.5062 559.019 85.9408 560.079 85.2621L562.557 89.5603ZM615.039 77.0051C615.039 88.5422 605.369 95.7812 588.386 95.7812C581.31 95.7812 573.409 94.0845 568.102 91.2569L572.701 75.5347H576.711C577.89 75.5347 578.362 75.8741 578.717 77.2313C579.305 79.8329 579.777 83.9048 579.777 86.8456C582.018 88.7685 586.027 90.0126 590.156 90.0126C596.523 90.0126 601.713 87.0718 601.713 81.6426C601.713 76.1003 597.466 74.1775 589.447 69.7662C581.9 66.0336 575.06 61.7354 575.06 52.2342C575.06 41.2627 584.14 34.9286 599.471 34.9286C605.487 34.9286 612.443 36.0597 617.75 38.7743L613.388 53.3654H609.613C608.435 53.3654 607.962 53.0261 607.608 51.7818C607.02 49.0672 606.547 46.0132 606.429 42.8462C604.188 41.3758 600.886 40.6971 597.702 40.6971C592.513 40.6971 588.623 43.1856 588.623 47.823C588.623 53.1392 593.458 55.6275 600.65 59.4732C609.023 63.8845 615.039 67.9564 615.039 77.0051ZM644.963 26.6717C640.01 26.6717 636.708 23.3915 636.708 19.0933C636.708 13.8903 640.953 9.59221 646.968 9.59221C651.921 9.59221 655.105 12.8724 655.105 17.1704C655.105 22.4867 650.741 26.6717 644.963 26.6717ZM651.095 89.5603C647.085 93.1797 641.897 95.6681 636.354 95.6681C628.689 95.6681 625.269 90.4651 626.802 82.2081L633.642 46.5788C633.995 44.5428 633.17 44.0904 628.453 42.7331C627.627 42.5069 627.273 42.1675 627.509 41.2627L628.099 37.9826L651.331 34.9286L648.854 46.5788L641.897 82.3212C641.425 85.0359 642.016 86.6194 644.255 86.6194C645.788 86.6194 647.321 86.0538 648.62 85.2621L651.095 89.5603ZM683.792 95.6681C670.466 95.6681 660.442 86.1669 660.442 71.4628C660.442 51.2163 674.004 34.9286 695.939 34.9286C702.543 34.9286 708.204 36.1729 712.921 38.6612L707.614 55.7406H703.486C702.307 55.7406 701.717 55.4014 701.482 54.1571C700.774 51.1032 700.538 46.9182 700.538 43.2987C699.359 42.0544 696.647 41.3758 693.816 41.3758C682.377 41.3758 675.773 55.2883 675.773 68.8612C675.773 79.6067 680.962 86.7325 689.571 86.7325C695.231 86.7325 699.831 85.149 703.369 82.3212L706.317 86.3931C700.184 92.501 693.227 95.6681 683.792 95.6681ZM776.614 89.5603C773.43 92.6142 768.949 94.9895 764.467 95.4419C762.816 95.5551 761.283 95.4419 759.868 95.1026C756.33 94.3108 753.972 91.4831 753.5 87.185C753.264 85.7146 753.264 84.1309 753.264 82.4343C746.896 91.0307 740.528 94.8764 734.749 95.5551C733.688 95.668 732.626 95.6681 731.565 95.6681C721.659 94.9895 716.352 86.3931 716.352 75.4216C716.352 53.3654 730.622 35.7204 751.613 34.9286C752.792 34.9286 753.972 34.9286 755.151 35.0417C759.986 35.2679 764.349 36.6252 768.005 39.0005L773.548 34.9286L777.439 37.9826C776.142 40.8102 775.317 43.4118 774.609 46.2395C773.902 48.9541 773.312 51.7818 772.722 54.9489L767.533 82.3212C767.062 85.0359 767.651 86.6194 769.892 86.6194C771.425 86.6194 773.076 86.0538 774.255 85.2621L776.614 89.5603ZM731.565 72.7069C731.565 81.1902 734.749 85.4883 739.702 85.4883C744.066 85.4883 749.136 82.7737 753.854 76.2134L754.325 74.2906L759.986 45.4478C758.453 43.1856 756.094 41.8283 753.618 41.4889C752.674 41.3758 751.731 41.2627 750.787 41.3758C738.405 42.2806 731.565 60.265 731.565 72.7069ZM895.666 89.5603C892.01 93.0666 886.585 95.6681 881.161 95.6681C875.382 95.6681 872.198 92.501 871.962 87.0718C871.844 85.4883 871.844 83.9048 871.962 82.3212C865.594 90.9175 858.99 94.8764 852.976 95.4419C851.796 95.5551 850.617 95.668 849.438 95.5551C839.65 94.8764 834.461 86.3931 834.461 75.6478C834.461 53.0261 848.966 34.9286 871.137 34.9286C874.321 34.9286 877.269 35.4942 879.863 36.7383L883.048 19.9982C883.401 17.8491 882.458 17.3967 877.859 16.1525C877.033 15.8132 876.679 15.5869 876.797 14.569L877.505 11.4019L900.737 8.12178L898.968 16.2656L897.435 23.957L886.585 82.3212C886.114 84.4703 886.467 85.9408 887.883 86.3931C888.354 86.5062 888.944 86.6194 889.534 86.5062C890.949 86.5062 892.128 85.9408 893.189 85.2621L895.666 89.5603ZM849.674 72.7069C849.674 81.1902 852.858 85.4883 857.929 85.4883C862.174 85.4883 867.717 82.5474 872.67 75.8741L872.906 74.856L878.33 45.3347C876.797 43.0725 874.439 41.8283 871.844 41.4889C870.901 41.3758 869.957 41.2627 869.014 41.3758C856.631 42.2806 849.674 59.8125 849.674 72.7069ZM964.317 58.1159C964.317 78.5886 949.931 95.6681 929.764 95.6681C915.023 95.6681 904.999 87.5243 904.999 72.3677C904.999 52.008 919.268 34.9286 939.552 34.9286C954.293 34.9286 964.317 43.0725 964.317 58.1159ZM948.752 56.08C948.752 46.0132 944.859 41.3758 938.61 41.3758C927.171 41.3758 920.449 61.0568 920.449 74.4037C920.449 84.4703 924.339 89.334 930.591 89.334C942.03 89.334 948.752 69.3137 948.752 56.08Z" fill="#FEE284"/>
</g>
<defs>
<filter id="filter0_d_71_7" x="0" y="0.651367" width="1191.15" height="472.798" filterUnits="userSpaceOnUse" color-interpolation-filters="sRGB">
<feFlood flood-opacity="0" result="BackgroundImageFix"/>
<feColorMatrix in="SourceAlpha" type="matrix" values="0 0 0 0 0 0 0 0 0 0 0 0 0 0 0 0 0 0 127 0" result="hardAlpha"/>
<feOffset dy="4"/>
<feGaussianBlur stdDeviation="5"/>
<feComposite in2="hardAlpha" operator="out"/>
<feColorMatrix type="matrix" values="0 0 0 0 0 0 0 0 0 0 0 0 0 0 0 0 0 0 0.5 0"/>
<feBlend mode="normal" in2="BackgroundImageFix" result="effect1_dropShadow_71_7"/>
<feBlend mode="normal" in="SourceGraphic" in2="effect1_dropShadow_71_7" result="shape"/>
</filter>
</defs>
</svg>
