<svg width="369" height="79" viewBox="0 0 369 79" fill="none" xmlns="http://www.w3.org/2000/svg">
<g filter="url(#filter0_d_2_2847)">
<path d="M36.5 63.475C36.5 63.85 36.275 64 35.525 64H10.85V61.225C10.85 60.475 11.15 59.8 11.975 59.575C14.9 58.675 15.875 58.075 15.875 56.2V19.45C15.875 17.575 14.9 17.05 11.975 16.075C11.15 15.85 10.85 15.175 10.85 14.5V11.5H17.6C21.275 11.5 26.675 11.2 33.35 11.2C48.425 11.2 55.7 16.75 55.7 27.175C55.7 38.2 46.4 44.5 32 44.5C31.175 44.5 30.2 44.425 29.375 44.35V58.3L36.5 60.025V63.475ZM32.45 16.75C31.4 16.75 30.35 16.825 29.375 16.9V38.425C30.425 38.875 31.775 39.1 33.275 39.1C37.85 39.1 41.75 35.725 41.75 27.55C41.75 19.3 38.525 16.75 32.45 16.75ZM95.6592 44.575C95.6592 56.5 87.2592 64.9 74.8842 64.9C62.6592 64.9 55.0842 57.1 55.0842 44.5C55.0842 32.5 63.4092 24.025 75.7842 24.025C88.0842 24.025 95.6592 31.975 95.6592 44.575ZM82.5342 46C82.5342 32.8 79.3842 29.05 75.0342 29.05C70.3842 29.05 68.2092 33.625 68.2092 42.925C68.2092 56.2 71.2842 59.875 75.7092 59.875C80.3592 59.875 82.5342 55.3 82.5342 46ZM118.377 63.625C118.377 63.925 118.227 64 117.627 64H97.8271V61C97.8271 60.25 98.0521 59.875 98.7271 59.575C100.977 58.675 101.577 57.925 101.577 56.425V16.45C101.577 15.175 101.277 14.8 98.7271 14.125C98.1271 13.975 97.8271 13.675 97.8271 13V9.925L114.552 6.85L114.402 14.8V58.6L118.377 60.1V63.625ZM146.799 21.7L138.624 14.35L130.524 21.7L126.849 19.3L134.424 7.075H142.749L150.399 19.3L146.799 21.7ZM155.574 58.075C152.124 62.875 145.449 64.9 138.924 64.9C127.599 64.9 119.874 57.1 119.874 44.5C119.874 32.65 127.974 24.025 139.299 24.025C149.874 24.025 155.724 30.325 155.724 40.675C155.724 41.65 155.724 42.4 155.574 43.75C150.249 44.8 139.524 45.55 132.699 45.475C133.749 53.35 137.724 57.55 144.324 57.55C147.699 57.55 151.074 56.575 153.399 54.85L155.574 58.075ZM138.774 29.125C134.874 29.125 132.399 32.875 132.324 40.975L144.174 39.7C144.849 33.175 142.824 29.125 138.774 29.125ZM177.885 63.625C177.885 63.925 177.735 64 177.135 64H157.71V61C157.71 60.25 157.935 59.875 158.61 59.575C158.835 59.5 159.06 59.425 159.21 59.425C160.935 58.6 161.46 57.925 161.46 56.5V33.625C161.46 32.275 161.16 31.9 158.61 31.225C158.01 31.075 157.71 30.775 157.71 30.025V27.1L174.435 24.025L174.285 31.9C177.66 27.775 181.335 25.15 185.235 24.4C186.66 24.175 188.01 24.1 189.435 24.325C194.085 24.55 197.235 27.775 198.36 32.5C202.11 27.775 206.16 24.85 210.585 24.175C211.56 24.1 212.535 24.025 213.51 24.1C219.435 24.475 223.035 28.3 223.41 34.75C223.41 35.35 223.485 35.875 223.485 36.475V58.6L227.46 60.175V63.625C227.46 63.925 227.31 64 226.71 64H207.36V61C207.36 60.25 207.585 59.875 208.26 59.575C208.485 59.5 208.635 59.425 208.86 59.425C210.435 58.675 210.735 57.925 210.735 56.5V39.925C210.735 34.975 208.71 33.1 205.11 33.1C203.085 33.1 200.835 34 198.81 35.425C198.81 36.025 198.885 36.7 198.885 37.375V58.675L202.485 60.175V63.625C202.485 63.925 202.335 64 201.735 64H182.685V61C182.685 60.25 182.91 59.875 183.735 59.575C184.185 59.425 184.485 59.35 184.635 59.2C185.535 58.75 185.91 58.225 185.985 57.475C186.06 56.875 186.06 56.275 186.06 55.6V41.275C186.06 39.625 185.91 38.275 185.685 37.15C185.16 34.525 183.435 33.1 180.585 33.1C178.56 33.1 176.385 33.925 174.285 35.35V58.675L177.885 60.175V63.625ZM238.203 20.5C234.153 20.5 230.928 17.275 230.928 13.3C230.928 9.7 234.153 6.4 238.203 6.4C242.103 6.4 245.253 9.7 245.253 13.3C245.253 17.275 242.103 20.5 238.203 20.5ZM248.778 63.625C248.778 63.925 248.628 64 248.028 64H228.228V61C228.228 60.25 228.453 59.875 229.128 59.575C231.378 58.675 231.978 58 231.978 56.5V33.55C231.978 32.275 231.678 31.975 229.128 31.225C228.528 31.075 228.228 30.775 228.228 30.025V27.1L244.953 24.025L244.803 31.9V58.6L248.778 60.175V63.625ZM275.025 30.4C274.05 29.65 272.55 29.2 271.2 29.2C265.65 29.2 263.325 33.175 263.325 40.6C263.325 51.1 267.075 57.55 274.5 57.55C277.8 57.55 280.65 56.575 282.975 54.85L285.225 58.075C281.775 62.875 275.55 64.9 269.1 64.9C258 64.9 250.275 57.4 250.275 44.8C250.275 32.35 258.6 24.025 271.65 24.025C275.925 24.025 280.2 24.85 283.875 26.725L282.525 39.025H278.55C277.725 39.025 277.275 38.725 276.9 37.9C276.075 35.8 275.4 33.25 275.025 30.4ZM316.354 64.9C312.079 64.9 309.229 63.175 308.104 58.825C305.629 63.025 301.129 64.975 296.854 64.975C290.704 64.975 286.129 60.85 286.129 54.1C286.129 45.25 294.454 42.625 305.779 42.475H307.504V36.7C307.504 30.325 304.879 28.975 301.429 28.975C300.079 28.975 298.879 29.125 297.679 29.425C297.229 31.825 296.554 34.6 295.654 36.55C295.279 37.45 294.829 37.675 294.004 37.675H289.729L288.529 27.625C292.954 25.375 299.404 24.025 304.954 24.025C316.579 24.025 320.329 29.05 320.329 37.825V54.775C320.329 56.5 321.229 57.25 322.504 57.25C323.254 57.25 323.854 57.1 324.379 56.65L326.179 60.025C324.304 63.1 320.179 64.9 316.354 64.9ZM297.529 52.45C297.529 55.375 299.254 57.625 302.854 57.625C304.429 57.625 306.154 57.025 307.504 56.125V46.9H306.079C300.229 46.975 297.529 49.15 297.529 52.45ZM358.357 51.625C358.357 59.65 351.907 64.9 339.982 64.9C335.557 64.9 330.682 64.15 326.932 62.425L327.982 51.4H331.507C332.332 51.4 332.857 51.625 333.232 52.525C334.132 54.475 334.582 56.65 335.032 58.75C336.607 59.8 338.707 60.4 340.882 60.4C344.407 60.4 347.632 59.05 347.632 56.05C347.632 52.675 344.482 51.475 339.982 49.825C334.207 47.725 327.832 45.4 327.832 37.15C327.832 28.975 333.607 24.025 344.632 24.025C348.157 24.025 352.957 24.7 356.632 26.575L355.582 36.775H351.982C351.157 36.775 350.782 36.55 350.332 35.65C349.507 33.775 349.057 32.125 348.532 29.95C347.257 29.125 345.082 28.6 343.507 28.6C340.507 28.6 338.632 29.875 338.632 32.575C338.632 35.875 342.157 37 346.657 38.65C352.657 40.825 358.357 43.3 358.357 51.625Z" fill="#F9F8F6"/>
</g>
<defs>
<filter id="filter0_d_2_2847" x="0.850098" y="0.400391" width="367.507" height="78.5742" filterUnits="userSpaceOnUse" color-interpolation-filters="sRGB">
<feFlood flood-opacity="0" result="BackgroundImageFix"/>
<feColorMatrix in="SourceAlpha" type="matrix" values="0 0 0 0 0 0 0 0 0 0 0 0 0 0 0 0 0 0 127 0" result="hardAlpha"/>
<feOffset dy="4"/>
<feGaussianBlur stdDeviation="5"/>
<feComposite in2="hardAlpha" operator="out"/>
<feColorMatrix type="matrix" values="0 0 0 0 0 0 0 0 0 0 0 0 0 0 0 0 0 0 0.5 0"/>
<feBlend mode="normal" in2="BackgroundImageFix" result="effect1_dropShadow_2_2847"/>
<feBlend mode="normal" in="SourceGraphic" in2="effect1_dropShadow_2_2847" result="shape"/>
</filter>
</defs>
</svg>
