<svg width="884" height="356" viewBox="0 0 884 356" fill="none" xmlns="http://www.w3.org/2000/svg">
<path d="M114.056 346.1C114.056 348.558 112.581 349.542 107.665 349.542H0V330.368C0 325.944 2.94971 322.011 7.86588 320.536C24.581 315.62 30.4804 312.67 33.9217 302.346L134.212 22.6145C152.402 14.257 192.715 3.44132 213.854 0L332.826 312.179L360.848 322.502V346.1C360.848 348.558 359.374 349.542 354.457 349.542H199.597V330.368C199.597 325.944 201.564 322.011 206.972 320.536C230.569 314.145 236.469 310.704 232.536 300.38L213.854 248.268H99.307L79.1507 312.67L114.056 322.502V346.1ZM110.614 211.397H200.581L152.402 79.6423L110.614 211.397ZM465.563 347.083C465.563 349.05 464.58 349.542 460.647 349.542H331.843V329.877C331.843 324.961 333.318 322.502 337.742 320.536C352.491 314.637 356.424 309.72 356.424 299.888V150.436C356.424 142.078 354.457 139.62 337.742 135.196C333.809 134.212 331.843 131.754 331.843 126.838V107.665L441.474 87.5082L440.491 139.129C467.038 105.699 497.027 87.5082 532.915 87.5082C579.127 87.5082 606.658 116.514 606.658 166.168V314.145L633.205 323.977V347.083C633.205 349.05 632.222 349.542 628.289 349.542H498.993V329.877C498.993 324.961 500.468 322.502 505.384 320.536C519.641 315.128 523.083 309.72 523.083 299.888V192.223C523.083 159.285 509.317 146.994 484.736 146.994C469.496 146.994 454.748 152.402 440.491 161.743V314.145L465.563 323.977V347.083ZM883.855 222.212C883.855 300.38 828.797 355.441 747.68 355.441C667.546 355.441 617.892 304.313 617.892 221.721C617.892 143.062 672.462 87.5082 753.579 87.5082C834.205 87.5082 883.855 139.62 883.855 222.212ZM797.825 231.553C797.825 145.028 777.177 120.447 748.663 120.447C718.183 120.447 703.926 150.436 703.926 211.397C703.926 298.413 724.082 322.502 753.088 322.502C783.568 322.502 797.825 292.514 797.825 231.553Z" fill="#D44C44"/>
<path d="M321.451 41.788L321.896 39.207H344.502C345.214 39.207 345.481 39.296 345.392 40.097L344.858 43.212L339.963 44.992L336.581 64.572C330.262 67.687 321.629 69.2 314.42 69.2C297.332 69.2 287.364 58.787 287.364 42.322C287.364 22.03 300.358 4.76397 325.367 4.76397C332.042 4.76397 339.073 5.92096 344.235 8.59097L340.141 24.344H336.848C335.958 24.344 335.691 23.988 335.335 23.009C334.712 20.695 334.356 16.601 334.445 12.863C331.953 11.083 328.215 10.104 324.032 10.104C307.923 10.104 300.002 29.773 300.002 44.547C300.002 57.007 305.965 64.127 315.31 64.127C319.315 64.127 323.587 63.148 326.435 61.101L328.838 47.217C329.105 45.437 327.948 44.903 322.252 43.479C321.362 43.212 321.273 42.678 321.451 41.788ZM377.453 32.71C374.16 32.71 369.532 34.49 366.506 38.495L361.166 68.132H349.774L356.449 30.663C356.716 28.972 356.093 28.616 352.533 27.548C351.999 27.37 351.732 27.103 351.821 26.391L352.266 23.81L369.799 21.407L368.108 29.684L367.752 31.464L367.307 34.134C371.846 26.035 376.207 22.03 381.102 21.585C382.259 21.407 383.505 21.496 384.395 21.585C384.573 24.789 383.594 29.15 381.458 33.244C380.479 32.888 378.788 32.71 377.453 32.71ZM429.623 64.394C427.22 66.797 423.838 68.666 420.456 69.022C419.21 69.111 418.053 69.022 416.985 68.755C414.315 68.132 412.535 65.907 412.179 62.525C412.001 61.368 412.001 60.122 412.001 58.787C407.195 65.551 402.389 68.577 398.028 69.111C397.227 69.2 396.426 69.2 395.625 69.2C388.149 68.666 384.144 61.902 384.144 53.269C384.144 35.914 394.913 22.03 410.755 21.407C411.645 21.407 412.535 21.407 413.425 21.496C417.074 21.674 420.367 22.742 423.126 24.611L427.309 21.407L430.246 23.81C429.267 26.035 428.644 28.082 428.11 30.307C427.576 32.443 427.131 34.668 426.686 37.16L422.77 58.698C422.414 60.834 422.859 62.08 424.55 62.08C425.707 62.08 426.953 61.635 427.843 61.012L429.623 64.394ZM395.625 51.133C395.625 57.808 398.028 61.19 401.766 61.19C405.059 61.19 408.886 59.054 412.446 53.892L412.802 52.379L417.074 29.684C415.917 27.904 414.137 26.836 412.268 26.569C411.556 26.48 410.844 26.391 410.132 26.48C400.787 27.192 395.625 41.343 395.625 51.133ZM470.776 47.662L456.892 68.132H447.903L441.228 30.663C440.872 28.794 440.249 28.616 437.045 27.548C436.422 27.37 436.155 27.103 436.244 26.391L436.778 23.81L451.73 21.407L452.887 30.129L457.871 59.677L465.169 46.327C468.106 40.72 469.797 35.825 469.797 31.553C469.797 29.061 469.174 26.569 468.284 24.433C471.399 23.187 475.938 21.852 479.231 21.229C479.765 22.742 480.032 24.522 480.032 26.213C480.032 33.422 475.404 41.076 470.776 47.662ZM527.666 64.394C525.263 66.797 521.881 68.666 518.499 69.022C517.253 69.111 516.096 69.022 515.028 68.755C512.358 68.132 510.578 65.907 510.222 62.525C510.044 61.368 510.044 60.122 510.044 58.787C505.238 65.551 500.432 68.577 496.071 69.111C495.27 69.2 494.469 69.2 493.668 69.2C486.192 68.666 482.187 61.902 482.187 53.269C482.187 35.914 492.956 22.03 508.798 21.407C509.688 21.407 510.578 21.407 511.468 21.496C515.117 21.674 518.41 22.742 521.169 24.611L525.352 21.407L528.289 23.81C527.31 26.035 526.687 28.082 526.153 30.307C525.619 32.443 525.174 34.668 524.729 37.16L520.813 58.698C520.457 60.834 520.902 62.08 522.593 62.08C523.75 62.08 524.996 61.635 525.886 61.012L527.666 64.394ZM493.668 51.133C493.668 57.808 496.071 61.19 499.809 61.19C503.102 61.19 506.929 59.054 510.489 53.892L510.845 52.379L515.117 29.684C513.96 27.904 512.18 26.836 510.311 26.569C509.599 26.48 508.887 26.391 508.175 26.48C498.83 27.192 493.668 41.343 493.668 51.133ZM558.673 80.948C558.673 87.089 553.778 90.649 546.658 90.649C543.81 90.649 540.695 89.848 538.648 88.424L540.339 84.864C541.763 85.576 543.721 86.199 545.679 86.199C548.794 86.199 551.197 84.508 551.197 81.749C551.197 81.126 551.019 80.592 550.752 80.236C550.218 78.367 548.349 77.744 546.302 77.744C545.59 77.744 544.789 77.833 543.988 77.922L548.438 68.755C540.606 67.242 535.088 60.567 534.821 50.955V49.175C535.177 33.689 545.234 21.407 561.521 21.407C566.505 21.407 570.777 22.386 574.337 24.344L570.332 37.783H567.217C566.327 37.783 565.882 37.516 565.704 36.537C565.17 34.134 564.992 30.841 564.992 27.993C564.102 27.014 562.055 26.48 559.919 26.48C551.286 26.48 546.302 37.427 546.302 48.107C546.302 55.939 549.773 61.368 555.469 61.991C556.448 62.08 557.427 62.169 558.406 62.08C561.877 61.813 564.814 60.567 567.128 58.698L569.353 61.902C564.903 66.53 559.83 69.022 553.244 69.2H552.176L550.841 73.116C555.38 73.828 558.673 76.498 558.673 80.948ZM618.578 1.91597L622.227 3.69597C619.468 10.104 615.997 14.198 611.725 14.198C607.542 14.198 602.825 9.83701 599.621 9.83701C597.752 9.83701 596.506 11.35 594.637 14.376L590.988 12.507C593.747 6.09897 597.218 2.09397 601.49 2.09397C605.673 2.09397 610.39 6.36597 613.594 6.36597C615.463 6.36597 616.709 4.94197 618.578 1.91597ZM622.405 64.394C620.002 66.797 616.62 68.666 613.238 69.022C611.992 69.111 610.835 69.022 609.767 68.755C607.097 68.132 605.317 65.907 604.961 62.525C604.783 61.368 604.783 60.122 604.783 58.787C599.977 65.551 595.171 68.577 590.81 69.111C590.009 69.2 589.208 69.2 588.407 69.2C580.931 68.666 576.926 61.902 576.926 53.269C576.926 35.914 587.695 22.03 603.537 21.407C604.427 21.407 605.317 21.407 606.207 21.496C609.856 21.674 613.149 22.742 615.908 24.611L620.091 21.407L623.028 23.81C622.049 26.035 621.426 28.082 620.892 30.307C620.358 32.443 619.913 34.668 619.468 37.16L615.552 58.698C615.196 60.834 615.641 62.08 617.332 62.08C618.489 62.08 619.735 61.635 620.625 61.012L622.405 64.394ZM588.407 51.133C588.407 57.808 590.81 61.19 594.548 61.19C597.841 61.19 601.668 59.054 605.228 53.892L605.584 52.379L609.856 29.684C608.699 27.904 606.919 26.836 605.05 26.569C604.338 26.48 603.626 26.391 602.914 26.48C593.569 27.192 588.407 41.343 588.407 51.133ZM673.972 39.652C673.972 55.761 663.114 69.2 647.895 69.2C636.77 69.2 629.205 62.792 629.205 50.866C629.205 34.846 639.974 21.407 655.282 21.407C666.407 21.407 673.972 27.815 673.972 39.652ZM662.224 38.05C662.224 30.129 659.287 26.48 654.57 26.48C645.937 26.48 640.864 41.966 640.864 52.468C640.864 60.389 643.801 64.216 648.518 64.216C657.151 64.216 662.224 48.463 662.224 38.05ZM744.324 64.394C741.565 67.153 737.471 69.2 733.377 69.2C729.016 69.2 726.613 66.708 726.435 62.436C726.346 61.19 726.346 59.944 726.435 58.698C721.629 65.462 716.645 68.577 712.106 69.022C711.216 69.111 710.326 69.2 709.436 69.111C702.049 68.577 698.133 61.902 698.133 53.447C698.133 35.647 709.08 21.407 725.812 21.407C728.215 21.407 730.44 21.852 732.398 22.831L734.801 9.65901C735.068 7.96797 734.356 7.61197 730.885 6.63297C730.262 6.36597 729.995 6.18797 730.084 5.38697L730.618 2.89497L748.151 0.313965L746.816 6.72196L745.659 12.774L737.471 58.698C737.115 60.389 737.382 61.546 738.45 61.902C738.806 61.991 739.251 62.08 739.696 61.991C740.764 61.991 741.654 61.546 742.455 61.012L744.324 64.394ZM709.614 51.133C709.614 57.808 712.017 61.19 715.844 61.19C719.048 61.19 723.231 58.876 726.969 53.625L727.147 52.824L731.241 29.595C730.084 27.815 728.304 26.836 726.346 26.569C725.634 26.48 724.922 26.391 724.21 26.48C714.865 27.192 709.614 40.987 709.614 51.133ZM796.135 39.652C796.135 55.761 785.277 69.2 770.058 69.2C758.933 69.2 751.368 62.792 751.368 50.866C751.368 34.846 762.137 21.407 777.445 21.407C788.57 21.407 796.135 27.815 796.135 39.652ZM784.387 38.05C784.387 30.129 781.45 26.48 776.733 26.48C768.1 26.48 763.027 41.966 763.027 52.468C763.027 60.389 765.964 64.216 770.681 64.216C779.314 64.216 784.387 48.463 784.387 38.05Z" fill="#D44C44"/>
</svg>
